{
  "accessors": [
    {
      "bufferView": 2,
      "componentType": 5126,
      "count": 467,
      "max": [
        2.2018089294433594,
        4.648585796356201,
        1.861130714416504
      ],
      "min": [
        -2.0571327209472656,
        1.260200023651123,
        -2.3053770065307617
      ],
      "type": "VEC3"
    },
    {
      "bufferView": 2,
      "byteOffset": 5604,
      "componentType": 5126,
      "count": 467,
      "max": [
        0.9992599487304688,
        0.999771773815155,
        0.9997975826263428
      ],
      "min": [
        -0.9984194040298462,
        -0.976249098777771,
        -0.9981431365013123
      ],
      "type": "VEC3"
    },
    {
      "bufferView": 1,
      "componentType": 5126,
      "count": 467,
      "max": [
        1.0,
        0.0
      ],
      "min": [
        0.0,
        -1.0
      ],
      "type": "VEC2"
    },
    {
      "bufferView": 0,
      "componentType": 5125,
      "count": 1128,
      "type": "SCALAR"
    },
    {
      "bufferView": 2,
      "byteOffset": 11208,
      "componentType": 5126,
      "count": 467,
      "max": [
        2.2018089294433594,
        4.648585796356201,
        1.861130714416504
      ],
      "min": [
        -2.0571327209472656,
        1.260200023651123,
        -2.3053770065307617
      ],
      "type": "VEC3"
    },
    {
      "bufferView": 2,
      "byteOffset": 16812,
      "componentType": 5126,
      "count": 467,
      "max": [
        0.9992599487304688,
        0.9997718334197998,
        0.9997975826263428
      ],
      "min": [
        -0.9984194040298462,
        -0.976249098777771,
        -0.9981431365013123
      ],
      "type": "VEC3"
    },
    {
      "bufferView": 1,
      "byteOffset": 3736,
      "componentType": 5126,
      "count": 467,
      "max": [
        1.0,
        0.0
      ],
      "min": [
        0.0,
        -1.0
      ],
      "type": "VEC2"
    },
    {
      "bufferView": 0,
      "byteOffset": 4512,
      "componentType": 5125,
      "count": 1128,
      "type": "SCALAR"
    },
    {
      "bufferView": 2,
      "byteOffset": 22416,
      "componentType": 5126,
      "count": 467,
      "max": [
        2.2018089294433594,
        4.648585796356201,
        1.861130714416504
      ],
      "min": [
        -2.0571327209472656,
        1.260200023651123,
        -2.3053770065307617
      ],
      "type": "VEC3"
    },
    {
      "bufferView": 2,
      "byteOffset": 28020,
      "componentType": 5126,
      "count": 467,
      "max": [
        0.9992599487304688,
        0.9997718334197998,
        0.9997975826263428
      ],
      "min": [
        -0.9984194040298462,
        -0.976249098777771,
        -0.9981431365013123
      ],
      "type": "VEC3"
    },
    {
      "bufferView": 1,
      "byteOffset": 7472,
      "componentType": 5126,
      "count": 467,
      "max": [
        1.0,
        0.0
      ],
      "min": [
        0.0,
        -1.0
      ],
      "type": "VEC2"
    },
    {
      "bufferView": 0,
      "byteOffset": 9024,
      "componentType": 5125,
      "count": 1128,
      "type": "SCALAR"
    },
    {
      "bufferView": 2,
      "byteOffset": 33624,
      "componentType": 5126,
      "count": 3066,
      "max": [
        2.0536718368530273,
        4.629985332489014,
        1.7546825408935547
      ],
      "min": [
        -1.9234451055526733,
        1.349268913269043,
        -2.171339511871338
      ],
      "type": "VEC3"
    },
    {
      "bufferView": 2,
      "byteOffset": 70416,
      "componentType": 5126,
      "count": 3066,
      "max": [
        0.9984148740768433,
        0.9853299856185913,
        0.9997958540916443
      ],
      "min": [
        -0.9967598915100098,
        -0.9987281560897827,
        -0.9999918937683105
      ],
      "type": "VEC3"
    },
    {
      "bufferView": 1,
      "byteOffset": 11208,
      "componentType": 5126,
      "count": 3066,
      "max": [
        7.4004011154174805,
        4.457900524139404
      ],
      "min": [
        -4.094200611114502,
        -2.6107001304626465
      ],
      "type": "VEC2"
    },
    {
      "bufferView": 0,
      "byteOffset": 13536,
      "componentType": 5125,
      "count": 11232,
      "type": "SCALAR"
    },
    {
      "bufferView": 2,
      "byteOffset": 107208,
      "componentType": 5126,
      "count": 143,
      "max": [
        0.8121444582939148,
        1.7929631471633911,
        0.861124575138092
      ],
      "min": [
        -0.9535209536552429,
        -0.29614925384521484,
        -0.9990575909614563
      ],
      "type": "VEC3"
    },
    {
      "bufferView": 2,
      "byteOffset": 108924,
      "componentType": 5126,
      "count": 143,
      "max": [
        0.9901171922683716,
        0.8438305854797363,
        0.9980682730674744
      ],
      "min": [
        -0.9984263181686401,
        -0.8579630255699158,
        -0.9853747487068176
      ],
      "type": "VEC3"
    },
    {
      "bufferView": 1,
      "byteOffset": 35736,
      "componentType": 5126,
      "count": 143,
      "max": [
        0.2791000008583069,
        -0.007799999788403511
      ],
      "min": [
        0.014800000004470348,
        -0.18330000340938568
      ],
      "type": "VEC2"
    },
    {
      "bufferView": 0,
      "byteOffset": 58464,
      "componentType": 5125,
      "count": 609,
      "type": "SCALAR"
    },
    {
      "bufferView": 2,
      "byteOffset": 110640,
      "componentType": 5126,
      "count": 723,
      "max": [
        1.467875361442566,
        4.08790397644043,
        2.1345744132995605
      ],
      "min": [
        -1.382523775100708,
        1.95444917678833,
        0.6437869668006897
      ],
      "type": "VEC3"
    },
    {
      "bufferView": 2,
      "byteOffset": 119316,
      "componentType": 5126,
      "count": 723,
      "max": [
        0.9944287538528442,
        0.9995564222335815,
        0.9926944971084595
      ],
      "min": [
        -0.9935940504074097,
        -0.9997166991233826,
        -0.9915638566017151
      ],
      "type": "VEC3"
    },
    {
      "bufferView": 1,
      "byteOffset": 36880,
      "componentType": 5126,
      "count": 723,
      "max": [
        0.9976195693016052,
        0.9979400038719177
      ],
      "min": [
        0.001892118714749813,
        0.003967344760894775
      ],
      "type": "VEC2"
    },
    {
      "bufferView": 0,
      "byteOffset": 60900,
      "componentType": 5125,
      "count": 3690,
      "type": "SCALAR"
    }
  ],
  "asset": {
    "extras": {
      "author": "damien_max59 (https://sketchfab.com/damienbouchez59)",
      "license": "CC-BY-4.0 (http://creativecommons.org/licenses/by/4.0/)",
      "source": "https://sketchfab.com/3d-models/animal-crossing-apple-tree-2ed2a55eebbb4b4fb60484390f611d20",
      "title": "Animal Crossing Apple Tree"
    },
    "generator": "Sketchfab-12.66.0",
    "version": "2.0"
  },
  "bufferViews": [
    {
      "buffer": 0,
      "byteLength": 75660,
      "name": "floatBufferViews",
      "target": 34963
    },
    {
      "buffer": 0,
      "byteLength": 42664,
      "byteOffset": 75660,
      "byteStride": 8,
      "name": "floatBufferViews",
      "target": 34962
    },
    {
      "buffer": 0,
      "byteLength": 127992,
      "byteOffset": 118324,
      "byteStride": 12,
      "name": "floatBufferViews",
      "target": 34962
    }
  ],
  "buffers": [
    {
      "byteLength": 246316,
      "uri": "scene.bin"
    }
  ],
  "images": [
    {
      "uri": "textures/ac_bigtree_leafA_baseColor.png"
    },
    {
      "uri": "textures/ac_bigtree_leafB_baseColor.png"
    },
    {
      "uri": "textures/ac_dooretc_baseColor.png"
    },
    {
      "uri": "textures/material_0_baseColor.png"
    }
  ],
  "materials": [
    {
      "alphaMode": "BLEND",
      "doubleSided": true,
      "name": "ac_bigtree_leafA",
      "pbrMetallicRoughness": {
        "baseColorTexture": {
          "index": 0
        },
        "metallicFactor": 0.0,
        "roughnessFactor": 0.6
      }
    },
    {
      "alphaMode": "BLEND",
      "doubleSided": true,
      "name": "ac_bigtree_leafA.001",
      "pbrMetallicRoughness": {
        "baseColorTexture": {
          "index": 0
        },
        "metallicFactor": 0.0,
        "roughnessFactor": 0.6
      }
    },
    {
      "alphaMode": "BLEND",
      "doubleSided": true,
      "name": "ac_bigtree_leafA.002",
      "pbrMetallicRoughness": {
        "baseColorTexture": {
          "index": 0
        },
        "metallicFactor": 0.0,
        "roughnessFactor": 0.6
      }
    },
    {
      "doubleSided": true,
      "name": "ac_bigtree_leafB",
      "pbrMetallicRoughness": {
        "baseColorTexture": {
          "index": 1
        },
        "metallicFactor": 0.0,
        "roughnessFactor": 0.6
      }
    },
    {
      "doubleSided": true,
      "name": "ac_dooretc",
      "pbrMetallicRoughness": {
        "baseColorTexture": {
          "index": 2
        },
        "metallicFactor": 0.0,
        "roughnessFactor": 0.673
      }
    },
    {
      "doubleSided": true,
      "name": "material_0",
      "pbrMetallicRoughness": {
        "baseColorTexture": {
          "index": 3
        },
        "metallicFactor": 0.0,
        "roughnessFactor": 0.495
      }
    }
  ],
  "meshes": [
    {
      "name": "Leaf186_1__ac_bigtree_leafA.001_ac_bigtree_leafA_0",
      "primitives": [
        {
          "attributes": {
            "NORMAL": 1,
            "POSITION": 0,
            "TEXCOORD_0": 2
          },
          "indices": 3,
          "material": 0,
          "mode": 4
        }
      ]
    },
    {
      "name": "Leaf186_1__ac_bigtree_leafA.001_ac_bigtree_leafA.001_0",
      "primitives": [
        {
          "attributes": {
            "NORMAL": 5,
            "POSITION": 4,
            "TEXCOORD_0": 6
          },
          "indices": 7,
          "material": 1,
          "mode": 4
        }
      ]
    },
    {
      "name": "Leaf186_1__ac_bigtree_leafA.001_ac_bigtree_leafA.002_0",
      "primitives": [
        {
          "attributes": {
            "NORMAL": 9,
            "POSITION": 8,
            "TEXCOORD_0": 10
          },
          "indices": 11,
          "material": 2,
          "mode": 4
        }
      ]
    },
    {
      "name": "Leaf186_1__ac_bigtree_leafA.001_ac_bigtree_leafB_0",
      "primitives": [
        {
          "attributes": {
            "NORMAL": 13,
            "POSITION": 12,
            "TEXCOORD_0": 14
          },
          "indices": 15,
          "material": 3,
          "mode": 4
        }
      ]
    },
    {
      "name": "Leaf186_1__ac_bigtree_leafA.001_ac_dooretc_0",
      "primitives": [
        {
          "attributes": {
            "NORMAL": 17,
            "POSITION": 16,
            "TEXCOORD_0": 18
          },
          "indices": 19,
          "material": 4,
          "mode": 4
        }
      ]
    },
    {
      "name": "Leaf186_1__ac_bigtree_leafA.001_mPltFruitApple_0",
      "primitives": [
        {
          "attributes": {
            "NORMAL": 21,
            "POSITION": 20,
            "TEXCOORD_0": 22
          },
          "indices": 23,
          "material": 5,
          "mode": 4
        }
      ]
    }
  ],
  "nodes": [
    {
      "children": [
        1
      ],
      "matrix": [
        1.0,
        0.0,
        0.0,
        0.0,
        0.0,
        2.220446049250313e-16,
        -1.0,
        0.0,
        0.0,
        1.0,
        2.220446049250313e-16,
        0.0,
        0.0,
        0.0,
        0.0,
        1.0
      ],
      "name": "Sketchfab_model"
    },
    {
      "children": [
        2
      ],
      "matrix": [
        1.0,
        0.0,
        0.0,
        0.0,
        0.0,
        0.0,
        1.0,
        0.0,
        0.0,
        -1.0,
        0.0,
        0.0,
        0.0,
        0.0,
        0.0,
        1.0
      ],
      "name": "3a7dde4a33e9457aaec2e539dd61cd76.fbx"
    },
    {
      "children": [
        3,
        6,
        8
      ],
      "name": "RootNode"
    },
    {
      "children": [
        4
      ],
      "matrix": [
        -29.08647719990347,
        -5.518906457566863,
        -95.51711910171437,
        0.0,
        56.63930913109449,
        79.46723428563203,
        -21.83912397841966,
        0.0,
        77.11008775993375,
        -60.45246356562044,
        -19.98834696773717,
        0.0,
        407.6245422363281,
        590.38623046875,
        -100.54539489746094,
        1.0
      ],
      "name": "Light"
    },
    {
      "children": [
        5
      ],
      "matrix": [
        1.0,
        0.0,
        0.0,
        0.0,
        0.0,
        2.220446049250313e-16,
        1.0,
        0.0,
        0.0,
        -1.0,
        2.220446049250313e-16,
        0.0,
        0.0,
        0.0,
        0.0,
        1.0
      ],
      "name": "Object_4"
    },
    {
      "name": "Object_5"
    },
    {
      "children": [
        7
      ],
      "matrix": [
        -65.15583280329096,
        -44.52713576570858,
        -61.41703047373549,
        0.0,
        -32.40134137821245,
        89.53957451233616,
        -30.542088974418615,
        0.0,
        68.59205472129975,
        -1.0718647115348782e-05,
        -72.7676336239627,
        0.0,
        735.88916015625,
        495.8309326171875,
        692.5791015625,
        1.0
      ],
      "name": "Camera"
    },
    {
      "name": "Object_7"
    },
    {
      "children": [
        9,
        10,
        11,
        12,
        13,
        14
      ],
      "matrix": [
        92.49906158447266,
        0.0,
        0.0,
        0.0,
        0.0,
        92.49906158447142,
        1.5070011784412743e-05,
        0.0,
        0.0,
        -1.5070011784412743e-05,
        92.49906158447142,
        0.0,
        0.0,
        0.0,
        0.0,
        1.0
      ],
      "name": "Leaf186_1__ac_bigtree_leafA.001"
    },
    {
      "mesh": 0,
      "name": "Leaf186_1__ac_bigtree_leafA.001_ac_bigtree_leafA_0"
    },
    {
      "mesh": 1,
      "name": "Leaf186_1__ac_bigtree_leafA.001_ac_bigtree_leafA.001_0"
    },
    {
      "mesh": 2,
      "name": "Leaf186_1__ac_bigtree_leafA.001_ac_bigtree_leafA.002_0"
    },
    {
      "mesh": 3,
      "name": "Leaf186_1__ac_bigtree_leafA.001_ac_bigtree_leafB_0"
    },
    {
      "mesh": 4,
      "name": "Leaf186_1__ac_bigtree_leafA.001_ac_dooretc_0"
    },
    {
      "mesh": 5,
      "name": "Leaf186_1__ac_bigtree_leafA.001_mPltFruitApple_0"
    }
  ],
  "samplers": [
    {
      "magFilter": 9729,
      "minFilter": 9987,
      "wrapS": 10497,
      "wrapT": 10497
    }
  ],
  "scene": 0,
  "scenes": [
    {
      "name": "Sketchfab_Scene",
      "nodes": [
        0
      ]
    }
  ],
  "textures": [
    {
      "sampler": 0,
      "source": 0
    },
    {
      "sampler": 0,
      "source": 1
    },
    {
      "sampler": 0,
      "source": 2
    },
    {
      "sampler": 0,
      "source": 3
    }
  ]
}
